{"title":"X Men X2(2003)MP-4[DaScubaDude]","uid":12359460,"size":1344397521,"categoryP":"video","categoryS":"movies","magnet":"?xt=urn:btih:403911282edb904fe92bbcf1a0ce84acc85b063d&amp;dn=X+Men+X2%282003%29MP-4%5BDaScubaDude%5D&amp;tr=udp%3A%2F%2Ftracker.openbittorrent.com%3A80&amp;tr=udp%3A%2F%2Fopen.demonii.com%3A1337&amp;tr=udp%3A%2F%2Ftracker.coppersurfer.tk%3A6969&amp;tr=udp%3A%2F%2Fexodus.desync.com%3A6969","seeders":3,"leechers":0,"uploader":"dascuba","files":1,"time":1441513684,"description":"X-Men 2 (2003) \n&quot;X2&quot; (original title)\nPG-13  |  134 min  |  Action, Adventure, Sci-Fi  |  2 May 2003 (USA)\n7.5 Your rating:   -/10   Ratings: 7.5/10 from 365,546 users   Metascore: 68/100 \nReviews: 1,045 user | 282 critic | 37 from Metacritic.com\nThe X-Men band together to find a mutant assassin who has made an attempt on the President's life, while the Mutant Academy is attacked by military forces.\n\nDirector: Bryan Singer\nWriters: Zak Penn (story), David Hayter (story), 4 more credits Â»\nStars: Patrick Stewart, Hugh Jackman, Halle Berry\n\nGeneral\nComplete name       : CX MEN ORIGINS WOLVERINEX_MEN_ORIGINS_WOLVERINE_Title1.mp4\nFormat                                   : MPEG-4\nFormat profile                           : Base Media\nCodec ID                                 : isom\nFile size                                : 1 022 MiB\nDuration                                 : 1h 47mn\nOverall bit rate                         : 1 332 Kbps\nMovie name                               : X_MEN_ORIGINS_WOLVERINE\nGenre                                    : Action\nWriting application                      : Lavf54.6.100\n\nVideo\nID                                       : 1\nFormat                                   : AVC\nFormat/Info                              : Advanced Video Codec\nFormat profile                           : Baseline@L3\nFormat settings, CABAC                   : No\nFormat settings, ReFrames                : 6 frames\nCodec ID                                 : avc1\nCodec ID/Info                            : Advanced Video Coding\nDuration                                 : 1h 47mn\nBit rate                                 : 1 197 Kbps\nWidth                                    : 720 pixels\nHeight                                   : 404 pixels\nDisplay aspect ratio                     : 16:9\nFrame rate mode                          : Constant\nFrame rate                               : 29.970 fps\nColor space                              : YUV\nChroma subsampling                       : 4:2:0\nBit depth                                : 8 bits\nScan type                                : Progressive\nBits/(Pixel*Frame)                       : 0.137\nStream size                              : 918 MiB (90%)\n\nAudio\nID                                       : 2\nFormat                                   : AAC\nFormat/Info                              : Advanced Audio Codec\nFormat profile                           : LC\nCodec ID                                 : 40\nDuration                                 : 1h 47mn\nBit rate mode                            : Constant\nBit rate                                 : 128 Kbps\nChannel(s)                               : 2 channels\nChannel positions                        : Front: L R\nSampling rate                            : 44.1 KHz\nCompression mode                         : Lossy\nStream size                              : 98.2 MiB (10%)","torrent":{"xt":"urn:btih:403911282edb904fe92bbcf1a0ce84acc85b063d","amp;dn":"X+Men+X2%282003%29MP-4%5BDaScubaDude%5D","amp;tr":["udp%3A%2F%2Ftracker.openbittorrent.com%3A80","udp%3A%2F%2Fopen.demonii.com%3A1337","udp%3A%2F%2Ftracker.coppersurfer.tk%3A6969","udp%3A%2F%2Fexodus.desync.com%3A6969"],"infoHash":"403911282edb904fe92bbcf1a0ce84acc85b063d","infoHashBuffer":{"type":"Buffer","data":[64,57,17,40,46,219,144,79,233,43,188,241,160,206,132,172,200,91,6,61]},"announce":[],"urlList":[]}}